# xmcd
#
# Track frame offsets: 
#        150
#        14189
#        34012
#        50889
#        62641
#        78704
#        95648
#        117089
#        131611
#        145037
#        160483
#        174529
#
# Disc length: 2549 seconds
#
# Revision: 0
# Processed by: cddbd v1.5.2PL0 Copyright (c) Steve Scherf et al.
# Submitted via: ExactAudioCopy v0.95b4
#
DISCID=ad09f30c
DTITLE=The Charles Burton Blues Band - I Wouldn't Lie To You
DYEAR=2006
DGENRE=Blues
TTITLE0=I Wouldn't Lie To You
TTITLE1=Cuba
TTITLE2=You Can't Treat Me That Way
TTITLE3=Big Eyes
TTITLE4=This Little Number
TTITLE5=How We Do It Downtown
TTITLE6=My Baby Don't Love Me
TTITLE7=Swing It
TTITLE8=Block Party
TTITLE9=See My Baby
TTITLE10=I'd Like To Know
TTITLE11=Pull Her Over
EXTD=
EXTT0=
EXTT1=
EXTT2=
EXTT3=
EXTT4=
EXTT5=
EXTT6=
EXTT7=
EXTT8=
EXTT9=
EXTT10=
EXTT11=
PLAYORDER=
